<?xml version="1.0" encoding="UTF-8" standalone="no"?>
<!-- Created with Inkscape (http://www.inkscape.org/) -->

<svg
   xmlns:dc="http://purl.org/dc/elements/1.1/"
   xmlns:cc="http://creativecommons.org/ns#"
   xmlns:rdf="http://www.w3.org/1999/02/22-rdf-syntax-ns#"
   xmlns:svg="http://www.w3.org/2000/svg"
   xmlns="http://www.w3.org/2000/svg"
   xmlns:sodipodi="http://sodipodi.sourceforge.net/DTD/sodipodi-0.dtd"
   xmlns:inkscape="http://www.inkscape.org/namespaces/inkscape"
   width="189.45415mm"
   height="35.489265mm"
   viewBox="0 0 189.45415 35.489265"
   version="1.1"
   id="svg1198"
   inkscape:version="0.92.2 (5c3e80d, 2017-08-06)"
   sodipodi:docname="attentional-cascades.svg">
  <defs
     id="defs1192" />
  <sodipodi:namedview
     id="base"
     pagecolor="#ffffff"
     bordercolor="#666666"
     borderopacity="1.0"
     inkscape:pageopacity="0.0"
     inkscape:pageshadow="2"
     inkscape:zoom="1.4"
     inkscape:cx="260.68539"
     inkscape:cy="384.14445"
     inkscape:document-units="mm"
     inkscape:current-layer="layer1"
     showgrid="false"
     fit-margin-top="0"
     fit-margin-left="0"
     fit-margin-right="0"
     fit-margin-bottom="0"
     inkscape:window-width="2560"
     inkscape:window-height="1011"
     inkscape:window-x="0"
     inkscape:window-y="873"
     inkscape:window-maximized="1" />
  <metadata
     id="metadata1195">
    <rdf:RDF>
      <cc:Work
         rdf:about="">
        <dc:format>image/svg+xml</dc:format>
        <dc:type
           rdf:resource="http://purl.org/dc/dcmitype/StillImage" />
        <dc:title></dc:title>
      </cc:Work>
    </rdf:RDF>
  </metadata>
  <g
     inkscape:label="Layer 1"
     inkscape:groupmode="layer"
     id="layer1"
     transform="translate(123.45326,-85.731558)">
    <g
       transform="matrix(0.35277777,0,0,-0.35277777,-151.55153,129.62341)"
       id="g100">
      <text
         transform="matrix(1,0,0,-1,571.2,91.3)"
         style="font-variant:normal;font-weight:normal;font-size:18px;font-family:'Times New Roman';-inkscape-font-specification:TimesNewRomanPSMT;writing-mode:lr-tb;fill:#000000;fill-opacity:1;fill-rule:nonzero;stroke:none"
         id="text104">
        <tspan
           x="0 10.008 22.914 34.902"
           y="0"
           sodipodi:role="line"
           id="tspan102">FACE</tspan>
      </text>
    </g>
    <g
       transform="matrix(0.35277777,0,0,-0.35277777,-151.55153,129.62341)"
       id="g106">
      <text
         transform="matrix(1,0,0,-1,79.3,94)"
         style="font-variant:normal;font-weight:normal;font-size:14px;font-family:'Times New Roman';-inkscape-font-specification:TimesNewRomanPSMT;writing-mode:lr-tb;fill:#000000;fill-opacity:1;fill-rule:nonzero;stroke:none"
         id="text110">
        <tspan
           x="0 4.6059999 17.094 27.188 37.282001"
           y="0"
           sodipodi:role="line"
           id="tspan108">IMAGE</tspan>
      </text>
    </g>
    <g
       transform="matrix(0.35277777,0,0,-0.35277777,-151.55153,129.62341)"
       id="g112">
      <text
         transform="matrix(1,0,0,-1,79.3,77.2)"
         style="font-variant:normal;font-weight:normal;font-size:14px;font-family:'Times New Roman';-inkscape-font-specification:TimesNewRomanPSMT;writing-mode:lr-tb;fill:#000000;fill-opacity:1;fill-rule:nonzero;stroke:none"
         id="text116">
        <tspan
           x="0 7.7839999 17.780001 27.16 31.85 45.051998 49.742001 59.737999 69.832001 79.926003"
           y="0"
           sodipodi:role="line"
           id="tspan114">SUB-WINDOW</tspan>
      </text>
    </g>
    <g
       transform="matrix(0.35277777,0,0,-0.35277777,-151.55153,129.62341)"
       id="g118">
      <path
         d="m 162,93.5 h 30.4"
         style="fill:none;stroke:#000000;stroke-width:0.73580003;stroke-linecap:butt;stroke-linejoin:round;stroke-miterlimit:10;stroke-dasharray:none;stroke-opacity:1"
         id="path120"
         inkscape:connector-curvature="0" />
    </g>
    <path
       d="m -81.701535,96.638689 -2.116667,1.058333 v -2.116666 z"
       style="fill:#000000;fill-opacity:1;fill-rule:evenodd;stroke:none;stroke-width:0.35277775"
       id="path122"
       inkscape:connector-curvature="0" />
    <g
       transform="matrix(0.35277777,0,0,-0.35277777,-151.55153,129.62341)"
       id="g124">
      <text
         transform="matrix(1,0,0,-1,211.1,87.4)"
         style="font-variant:normal;font-weight:normal;font-size:12px;font-family:'Times New Roman';-inkscape-font-specification:TimesNewRomanPSMT;writing-mode:lr-tb;fill:#000000;fill-opacity:1;fill-rule:nonzero;stroke:none"
         id="text128">
        <tspan
           x="0 7.9920001 11.376 16.572001 21.264 25.955999 29.34 33.240002 36.624001 41.928001 45.827999 48.827999"
           y="0"
           sodipodi:role="line"
           id="tspan126">Classifier 1</tspan>
      </text>
    </g>
    <g
       transform="matrix(0.35277777,0,0,-0.35277777,-151.55153,129.62341)"
       id="g130">
      <path
         d="m 283.9,93.5 h 30.4"
         style="fill:none;stroke:#000000;stroke-width:0.73580003;stroke-linecap:butt;stroke-linejoin:round;stroke-miterlimit:10;stroke-dasharray:none;stroke-opacity:1"
         id="path132"
         inkscape:connector-curvature="0" />
    </g>
    <path
       d="m -38.697925,96.638689 -2.116667,1.058333 v -2.116666 z"
       style="fill:#000000;fill-opacity:1;fill-rule:evenodd;stroke:none;stroke-width:0.35277775"
       id="path134"
       inkscape:connector-curvature="0" />
    <g
       transform="matrix(0.35277777,0,0,-0.35277777,-151.55153,129.62341)"
       id="g136">
      <path
         d="m 239.2,63.5 0.1,-18.4"
         style="fill:none;stroke:#000000;stroke-width:0.73580003;stroke-linecap:butt;stroke-linejoin:round;stroke-miterlimit:10;stroke-dasharray:none;stroke-opacity:1"
         id="path138"
         inkscape:connector-curvature="0" />
    </g>
    <path
       d="m -67.131815,115.68869 -1.058333,-2.11667 h 2.081389 z"
       style="fill:#000000;fill-opacity:1;fill-rule:evenodd;stroke:none;stroke-width:0.35277775"
       id="path140"
       inkscape:connector-curvature="0" />
    <g
       transform="matrix(0.35277777,0,0,-0.35277777,-151.55153,129.62341)"
       id="g142">
      <text
         transform="matrix(1,0,0,-1,297.4,102)"
         style="font-variant:normal;font-weight:bold;font-size:12px;font-family:'Times New Roman';-inkscape-font-specification:TimesNewRomanPS-BoldMT;writing-mode:lr-tb;fill:#000000;fill-opacity:1;fill-rule:nonzero;stroke:none"
         id="text146">
        <tspan
           x="0"
           y="0"
           id="tspan144">T</tspan>
      </text>
    </g>
    <g
       transform="matrix(0.35277777,0,0,-0.35277777,-151.55153,129.62341)"
       id="g148">
      <path
         d="m 444.1,93.5 v 0 l 0.1,1.4 0.1,1.5 0.3,1.4 0.3,1.5 0.5,1.4 0.6,1.4 0.7,1.3 0.7,1.4 0.9,1.3 1,1.3 1,1.3 1.2,1.2 1.2,1.1 1.3,1.2 1.4,1.1 1.5,1 1.5,1 1.7,0.9 1.6,0.8 1.8,0.8 1.8,0.8 1.8,0.6 1.9,0.7 1.9,0.5 2,0.5 2,0.4 2.1,0.3 2,0.2 2.1,0.2 2.1,0.2 h 2.1 v 0 h 2.1 l 2.2,-0.2 2.1,-0.2 2.1,-0.2 2.1,-0.4 2.1,-0.4 2,-0.5 2,-0.6 1.9,-0.6 1.9,-0.7 1.9,-0.8 1.7,-0.9 1.7,-0.9 1.7,-1 1.5,-1 1.5,-1.1 1.4,-1.1 1.3,-1.2 1.3,-1.3 1.1,-1.2 1,-1.4 1,-1.3 0.8,-1.4 0.7,-1.4 0.6,-1.4 0.5,-1.5 0.4,-1.5 0.3,-1.5 0.2,-1.5 v -1.5 0 -1.5 l -0.2,-1.5 -0.3,-1.5 -0.4,-1.4 -0.5,-1.5 -0.6,-1.4 -0.7,-1.5 -0.8,-1.3 -1,-1.4 -1,-1.3 -1.1,-1.3 -1.2,-1.2 -1.4,-1.2 -1.4,-1.2 -1.4,-1 -1.6,-1.1 -1.6,-1 -1.7,-0.9 -1.8,-0.8 -1.9,-0.8 -1.9,-0.7 -1.9,-0.7 -2,-0.6 -2,-0.4 -2.1,-0.5 -2.1,-0.3 -2.1,-0.3 -2.1,-0.2 -2.2,-0.1 -2.1,-0.1 v 0 l -2.2,0.1 -2.1,0.1 -2.2,0.2 -2.1,0.3 -2.1,0.3 -2.1,0.4 -2,0.5 -2,0.6 -1.9,0.7 -1.9,0.7 -1.9,0.8 -1.7,0.8 -1.7,0.9 -1.7,1 -1.5,1 -1.5,1.1 -1.4,1.2 -1.3,1.2 -1.3,1.2 -1.1,1.3 -1,1.3 -1,1.3 -0.8,1.4 -0.7,1.5 -0.6,1.4 -0.5,1.4 -0.4,1.5 -0.3,1.5 -0.2,1.5 z"
         style="fill:none;stroke:#ff0000;stroke-width:2.23569989;stroke-linecap:butt;stroke-linejoin:round;stroke-miterlimit:10;stroke-dasharray:none;stroke-opacity:1"
         id="path150"
         inkscape:connector-curvature="0" />
    </g>
    <g
       transform="matrix(0.35277777,0,0,-0.35277777,-151.55153,129.62341)"
       id="g152">
      <path
         d="M 444.1,122.2 Z"
         style="fill:none;stroke:#ff0000;stroke-width:2.23569989;stroke-linecap:butt;stroke-linejoin:round;stroke-miterlimit:10;stroke-dasharray:none;stroke-opacity:1"
         id="path154"
         inkscape:connector-curvature="0" />
    </g>
    <g
       transform="matrix(0.35277777,0,0,-0.35277777,-151.55153,129.62341)"
       id="g156">
      <path
         d="M 526.5,64.8 Z"
         style="fill:none;stroke:#ff0000;stroke-width:2.23569989;stroke-linecap:butt;stroke-linejoin:round;stroke-miterlimit:10;stroke-dasharray:none;stroke-opacity:1"
         id="path158"
         inkscape:connector-curvature="0" />
    </g>
    <g
       transform="matrix(0.35277777,0,0,-0.35277777,-151.55153,129.62341)"
       id="g160">
      <text
         transform="matrix(1,0,0,-1,458.1,90.1)"
         style="font-variant:normal;font-weight:normal;font-size:12px;font-family:'Times New Roman';-inkscape-font-specification:TimesNewRomanPSMT;writing-mode:lr-tb;fill:#000000;fill-opacity:1;fill-rule:nonzero;stroke:none"
         id="text164">
        <tspan
           x="0 8.0880003 11.388 16.691999 21.384001 26.076 29.375999 33.372002 36.672001 41.976002 45.972 48.972"
           y="0"
           sodipodi:role="line"
           id="tspan162">Classifier 3</tspan>
      </text>
    </g>
    <g
       transform="matrix(0.35277777,0,0,-0.35277777,-151.55153,129.62341)"
       id="g166">
      <path
         d="m 527.2,93.7 30.5,-0.1"
         style="fill:none;stroke:#000000;stroke-width:0.73580003;stroke-linecap:butt;stroke-linejoin:round;stroke-miterlimit:10;stroke-dasharray:none;stroke-opacity:1"
         id="path168"
         inkscape:connector-curvature="0" />
    </g>
    <path
       d="m 47.132903,96.603411 -2.08139,1.023056 v -2.081389 z"
       style="fill:#000000;fill-opacity:1;fill-rule:evenodd;stroke:none;stroke-width:0.35277775"
       id="path170"
       inkscape:connector-curvature="0" />
    <g
       transform="matrix(0.35277777,0,0,-0.35277777,-151.55153,129.62341)"
       id="g172">
      <text
         transform="matrix(1,0,0,-1,540.4,102.1)"
         style="font-variant:normal;font-weight:bold;font-size:12px;font-family:'Times New Roman';-inkscape-font-specification:TimesNewRomanPS-BoldMT;writing-mode:lr-tb;fill:#000000;fill-opacity:1;fill-rule:nonzero;stroke:none"
         id="text176">
        <tspan
           x="0"
           y="0"
           id="tspan174">T</tspan>
      </text>
    </g>
    <g
       transform="matrix(0.35277777,0,0,-0.35277777,-151.55153,129.62341)"
       id="g178">
      <path
         d="M 484.1,63.5 V 45.1"
         style="fill:none;stroke:#000000;stroke-width:0.73580003;stroke-linecap:butt;stroke-linejoin:round;stroke-miterlimit:10;stroke-dasharray:none;stroke-opacity:1"
         id="path180"
         inkscape:connector-curvature="0" />
    </g>
    <path
       d="m 19.228183,115.68869 -1.02305,-2.11667 h 2.08139 z"
       style="fill:#000000;fill-opacity:1;fill-rule:evenodd;stroke:none;stroke-width:0.35277775"
       id="path182"
       inkscape:connector-curvature="0" />
    <g
       transform="matrix(0.35277777,0,0,-0.35277777,-151.55153,129.62341)"
       id="g184">
      <text
         transform="matrix(1,0,0,-1,490.1,51.4)"
         style="font-variant:normal;font-weight:bold;font-size:12px;font-family:'Times New Roman';-inkscape-font-specification:TimesNewRomanPS-BoldMT;writing-mode:lr-tb;fill:#000000;fill-opacity:1;fill-rule:nonzero;stroke:none"
         id="text188">
        <tspan
           x="0"
           y="0"
           id="tspan186">F</tspan>
      </text>
    </g>
    <g
       transform="matrix(0.35277777,0,0,-0.35277777,-151.55153,129.62341)"
       id="g190">
      <text
         transform="matrix(1,0,0,-1,456.1,24)"
         style="font-variant:normal;font-weight:normal;font-size:12px;font-family:'Times New Roman';-inkscape-font-specification:TimesNewRomanPSMT;writing-mode:lr-tb;fill:#000000;fill-opacity:1;fill-rule:nonzero;stroke:none"
         id="text194">
        <tspan
           x="0 8.6879997 17.292 25.896 29.892 36.576 45.264 53.256001"
           y="0"
           sodipodi:role="line"
           id="tspan192">NON-FACE</tspan>
      </text>
    </g>
    <g
       transform="matrix(0.35277777,0,0,-0.35277777,-151.55153,129.62341)"
       id="g196">
      <path
         d="m 283.6,93.7 30.5,-0.1"
         style="fill:none;stroke:#000000;stroke-width:0.73580003;stroke-linecap:butt;stroke-linejoin:round;stroke-miterlimit:10;stroke-dasharray:none;stroke-opacity:1"
         id="path198"
         inkscape:connector-curvature="0" />
    </g>
    <path
       d="m -38.803759,96.603411 -2.081389,1.023056 v -2.081389 z"
       style="fill:#000000;fill-opacity:1;fill-rule:evenodd;stroke:none;stroke-width:0.35277775"
       id="path200"
       inkscape:connector-curvature="0" />
    <g
       transform="matrix(0.35277777,0,0,-0.35277777,-151.55153,129.62341)"
       id="g202">
      <text
         transform="matrix(1,0,0,-1,297.2,102.1)"
         style="font-variant:normal;font-weight:bold;font-size:12px;font-family:'Times New Roman';-inkscape-font-specification:TimesNewRomanPS-BoldMT;writing-mode:lr-tb;fill:#000000;fill-opacity:1;fill-rule:nonzero;stroke:none"
         id="text206">
        <tspan
           x="0"
           y="0"
           id="tspan204">T</tspan>
      </text>
    </g>
    <g
       transform="matrix(0.35277777,0,0,-0.35277777,-151.55153,129.62341)"
       id="g208">
      <text
         transform="matrix(1,0,0,-1,341.4,90.1)"
         style="font-variant:normal;font-weight:normal;font-size:12px;font-family:'Times New Roman';-inkscape-font-specification:TimesNewRomanPSMT;writing-mode:lr-tb;fill:#000000;fill-opacity:1;fill-rule:nonzero;stroke:none"
         id="text212">
        <tspan
           x="0 7.9920001 11.376 16.572001 21.264 25.955999 29.34 33.240002 36.624001 41.928001 45.827999 48.827999"
           y="0"
           sodipodi:role="line"
           id="tspan210">Classifier 2</tspan>
      </text>
    </g>
    <g
       transform="matrix(0.35277777,0,0,-0.35277777,-151.55153,129.62341)"
       id="g214">
      <path
         d="m 406.1,93.7 30.5,-0.1"
         style="fill:none;stroke:#000000;stroke-width:0.73580003;stroke-linecap:butt;stroke-linejoin:round;stroke-miterlimit:10;stroke-dasharray:none;stroke-opacity:1"
         id="path216"
         inkscape:connector-curvature="0" />
    </g>
    <path
       d="m 4.4115232,96.603411 -2.08139,1.023056 v -2.081389 z"
       style="fill:#000000;fill-opacity:1;fill-rule:evenodd;stroke:none;stroke-width:0.35277775"
       id="path218"
       inkscape:connector-curvature="0" />
    <g
       transform="matrix(0.35277777,0,0,-0.35277777,-151.55153,129.62341)"
       id="g220">
      <text
         transform="matrix(1,0,0,-1,421.1,102.1)"
         style="font-variant:normal;font-weight:bold;font-size:12px;font-family:'Times New Roman';-inkscape-font-specification:TimesNewRomanPS-BoldMT;writing-mode:lr-tb;fill:#000000;fill-opacity:1;fill-rule:nonzero;stroke:none"
         id="text224">
        <tspan
           x="0"
           y="0"
           id="tspan222">T</tspan>
      </text>
    </g>
    <g
       transform="matrix(0.35277777,0,0,-0.35277777,-151.55153,129.62341)"
       id="g226">
      <path
         d="m 369.2,66.3 0.1,-18.5"
         style="fill:none;stroke:#000000;stroke-width:0.73580003;stroke-linecap:butt;stroke-linejoin:round;stroke-miterlimit:10;stroke-dasharray:none;stroke-opacity:1"
         id="path228"
         inkscape:connector-curvature="0" />
    </g>
    <path
       d="m -21.270707,114.70091 -1.05833,-2.08139 h 2.08139 z"
       style="fill:#000000;fill-opacity:1;fill-rule:evenodd;stroke:none;stroke-width:0.35277775"
       id="path230"
       inkscape:connector-curvature="0" />
    <g
       transform="matrix(0.35277777,0,0,-0.35277777,-151.55153,129.62341)"
       id="g232">
      <text
         transform="matrix(1,0,0,-1,375.2,54.1)"
         style="font-variant:normal;font-weight:bold;font-size:12px;font-family:'Times New Roman';-inkscape-font-specification:TimesNewRomanPS-BoldMT;writing-mode:lr-tb;fill:#000000;fill-opacity:1;fill-rule:nonzero;stroke:none"
         id="text236">
        <tspan
           x="0"
           y="0"
           id="tspan234">F</tspan>
      </text>
    </g>
    <g
       transform="matrix(0.35277777,0,0,-0.35277777,-151.55153,129.62341)"
       id="g238">
      <text
         transform="matrix(1,0,0,-1,341.2,26.7)"
         style="font-variant:normal;font-weight:normal;font-size:12px;font-family:'Times New Roman';-inkscape-font-specification:TimesNewRomanPSMT;writing-mode:lr-tb;fill:#000000;fill-opacity:1;fill-rule:nonzero;stroke:none"
         id="text242">
        <tspan
           x="0 8.6879997 17.292 25.896 29.892 36.576 45.264 53.256001"
           y="0"
           sodipodi:role="line"
           id="tspan240">NON-FACE</tspan>
      </text>
    </g>
    <g
       transform="matrix(0.35277777,0,0,-0.35277777,-151.55153,129.62341)"
       id="g244">
      <path
         d="m 324,94.6 v 0 1.5 l 0.2,1.4 0.3,1.4 0.3,1.5 0.5,1.4 0.5,1.4 0.7,1.4 0.8,1.3 0.9,1.3 0.9,1.3 1.1,1.3 1.1,1.2 1.3,1.2 1.3,1.1 1.4,1.1 1.5,1 1.5,1 1.6,0.9 1.7,0.8 1.7,0.9 1.8,0.7 1.9,0.6 1.9,0.7 1.9,0.5 2,0.5 2,0.4 2,0.3 2.1,0.3 2.1,0.2 2,0.1 h 2.1 v 0 h 2.2 l 2.1,-0.2 2.2,-0.1 2.1,-0.3 2.1,-0.4 2,-0.4 2.1,-0.5 2,-0.6 1.9,-0.6 1.9,-0.7 1.8,-0.8 1.8,-0.9 1.7,-0.9 1.7,-1 1.5,-1 1.5,-1.1 1.4,-1.1 1.3,-1.2 1.2,-1.2 1.2,-1.3 1,-1.4 0.9,-1.3 0.8,-1.4 0.8,-1.4 0.6,-1.4 0.5,-1.5 0.4,-1.5 0.3,-1.5 0.1,-1.5 0.1,-1.5 v 0 l -0.1,-1.5 -0.1,-1.5 -0.3,-1.4 -0.4,-1.5 -0.5,-1.5 -0.6,-1.4 -0.7,-1.5 -0.9,-1.3 -0.9,-1.4 -1,-1.3 -1.1,-1.3 -1.3,-1.2 -1.3,-1.2 -1.4,-1.2 -1.5,-1 -1.5,-1.1 -1.7,-0.9 -1.7,-1 -1.7,-0.8 -1.9,-0.8 -1.9,-0.7 -1.9,-0.7 -2,-0.6 -2,-0.4 -2.1,-0.5 -2.1,-0.3 -2.1,-0.3 -2.2,-0.2 -2.1,-0.1 -2.2,-0.1 v 0 l -2.1,0.1 -2.2,0.1 -2.1,0.2 -2.1,0.3 -2.1,0.3 -2.1,0.4 -2,0.5 -2,0.6 -1.9,0.7 -1.9,0.7 -1.9,0.8 -1.8,0.8 -1.7,0.9 -1.6,1 -1.6,1 -1.5,1.1 -1.4,1.2 -1.3,1.2 -1.2,1.2 -1.1,1.3 -1,1.3 -1,1.4 -0.8,1.3 -0.7,1.5 -0.6,1.4 -0.5,1.5 -0.4,1.4 -0.3,1.5 -0.2,1.5 -0.1,1.5 z"
         style="fill:none;stroke:#00ff00;stroke-width:2.23569989;stroke-linecap:butt;stroke-linejoin:round;stroke-miterlimit:10;stroke-dasharray:none;stroke-opacity:1"
         id="path246"
         inkscape:connector-curvature="0" />
    </g>
    <g
       transform="matrix(0.35277777,0,0,-0.35277777,-151.55153,129.62341)"
       id="g248">
      <path
         d="M 324,123.3 Z"
         style="fill:none;stroke:#00ff00;stroke-width:2.23569989;stroke-linecap:butt;stroke-linejoin:round;stroke-miterlimit:10;stroke-dasharray:none;stroke-opacity:1"
         id="path250"
         inkscape:connector-curvature="0" />
    </g>
    <g
       transform="matrix(0.35277777,0,0,-0.35277777,-151.55153,129.62341)"
       id="g252">
      <path
         d="M 406.3,65.9 Z"
         style="fill:none;stroke:#00ff00;stroke-width:2.23569989;stroke-linecap:butt;stroke-linejoin:round;stroke-miterlimit:10;stroke-dasharray:none;stroke-opacity:1"
         id="path254"
         inkscape:connector-curvature="0" />
    </g>
    <g
       transform="matrix(0.35277777,0,0,-0.35277777,-151.55153,129.62341)"
       id="g256">
      <path
         d="m 198,94.6 v 0 1.5 l 0.2,1.4 0.3,1.4 0.3,1.5 0.5,1.4 0.5,1.4 0.7,1.4 0.8,1.3 0.9,1.3 0.9,1.3 1.1,1.3 1.1,1.2 1.3,1.2 1.3,1.1 1.4,1.1 1.5,1 1.5,1 1.6,0.9 1.7,0.8 1.7,0.9 1.8,0.7 1.9,0.6 1.9,0.7 1.9,0.5 2,0.5 2,0.4 2,0.3 2.1,0.3 2.1,0.2 2,0.1 h 2.1 v 0 h 2.2 l 2.1,-0.2 2.2,-0.1 2.1,-0.3 2.1,-0.4 2,-0.4 2.1,-0.5 2,-0.6 1.9,-0.6 1.9,-0.7 1.8,-0.8 1.8,-0.9 1.7,-0.9 1.7,-1 1.5,-1 1.5,-1.1 1.4,-1.1 1.3,-1.2 1.2,-1.2 1.2,-1.3 1,-1.4 0.9,-1.3 0.8,-1.4 0.8,-1.4 0.6,-1.4 0.5,-1.5 0.4,-1.5 0.3,-1.5 0.1,-1.5 0.1,-1.5 v 0 l -0.1,-1.5 -0.1,-1.5 -0.3,-1.4 -0.4,-1.5 -0.5,-1.5 -0.6,-1.4 -0.7,-1.5 -0.9,-1.3 -0.9,-1.4 -1,-1.3 -1.1,-1.3 -1.3,-1.2 -1.3,-1.2 -1.4,-1.2 -1.5,-1 -1.5,-1.1 -1.7,-0.9 -1.7,-1 -1.7,-0.8 -1.9,-0.8 -1.9,-0.7 -1.9,-0.7 -2,-0.6 -2,-0.4 -2.1,-0.5 -2.1,-0.3 -2.1,-0.3 -2.2,-0.2 -2.1,-0.1 -2.2,-0.1 v 0 l -2.1,0.1 -2.2,0.1 -2.1,0.2 -2.1,0.3 -2.1,0.3 -2.1,0.4 -2,0.5 -2,0.6 -1.9,0.7 -1.9,0.7 -1.9,0.8 -1.8,0.8 -1.7,0.9 -1.6,1 -1.6,1 -1.5,1.1 -1.4,1.2 -1.3,1.2 -1.2,1.2 -1.1,1.3 -1,1.3 -1,1.4 -0.8,1.3 -0.7,1.5 -0.6,1.4 -0.5,1.5 -0.4,1.4 -0.3,1.5 -0.2,1.5 -0.1,1.5 z"
         style="fill:none;stroke:#0000ff;stroke-width:2.23569989;stroke-linecap:butt;stroke-linejoin:round;stroke-miterlimit:10;stroke-dasharray:none;stroke-opacity:1"
         id="path258"
         inkscape:connector-curvature="0" />
    </g>
    <g
       transform="matrix(0.35277777,0,0,-0.35277777,-151.55153,129.62341)"
       id="g260">
      <path
         d="M 198,123.3 Z"
         style="fill:none;stroke:#0000ff;stroke-width:2.23569989;stroke-linecap:butt;stroke-linejoin:round;stroke-miterlimit:10;stroke-dasharray:none;stroke-opacity:1"
         id="path262"
         inkscape:connector-curvature="0" />
    </g>
    <g
       transform="matrix(0.35277777,0,0,-0.35277777,-151.55153,129.62341)"
       id="g264">
      <path
         d="M 280.3,65.9 Z"
         style="fill:none;stroke:#0000ff;stroke-width:2.23569989;stroke-linecap:butt;stroke-linejoin:round;stroke-miterlimit:10;stroke-dasharray:none;stroke-opacity:1"
         id="path266"
         inkscape:connector-curvature="0" />
    </g>
    <g
       transform="matrix(0.35277777,0,0,-0.35277777,-151.55153,129.62341)"
       id="g268">
      <path
         d="M 239.1,63.5 V 45.1"
         style="fill:none;stroke:#000000;stroke-width:0.73580003;stroke-linecap:butt;stroke-linejoin:round;stroke-miterlimit:10;stroke-dasharray:none;stroke-opacity:1"
         id="path270"
         inkscape:connector-curvature="0" />
    </g>
    <path
       d="m -67.202369,115.68869 -1.023056,-2.11667 h 2.08139 z"
       style="fill:#000000;fill-opacity:1;fill-rule:evenodd;stroke:none;stroke-width:0.35277775"
       id="path272"
       inkscape:connector-curvature="0" />
    <g
       transform="matrix(0.35277777,0,0,-0.35277777,-151.55153,129.62341)"
       id="g274">
      <text
         transform="matrix(1,0,0,-1,245.1,51.4)"
         style="font-variant:normal;font-weight:bold;font-size:12px;font-family:'Times New Roman';-inkscape-font-specification:TimesNewRomanPS-BoldMT;writing-mode:lr-tb;fill:#000000;fill-opacity:1;fill-rule:nonzero;stroke:none"
         id="text278">
        <tspan
           x="0"
           y="0"
           id="tspan276">F</tspan>
      </text>
    </g>
    <g
       transform="matrix(0.35277777,0,0,-0.35277777,-151.55153,129.62341)"
       id="g280">
      <text
         transform="matrix(1,0,0,-1,211.1,24)"
         style="font-variant:normal;font-weight:normal;font-size:12px;font-family:'Times New Roman';-inkscape-font-specification:TimesNewRomanPSMT;writing-mode:lr-tb;fill:#000000;fill-opacity:1;fill-rule:nonzero;stroke:none"
         id="text284">
        <tspan
           x="0 8.6879997 17.292 25.896 29.892 36.576 45.264 53.256001"
           y="0"
           sodipodi:role="line"
           id="tspan282">NON-FACE</tspan>
      </text>
    </g>
  </g>
</svg>
